<svg xmlns="http://www.w3.org/2000/svg" xmlns:xlink="http://www.w3.org/1999/xlink" viewBox="0 0 104.66 104.66"><defs><style>.cls-1{fill:none;}.cls-2{isolation:isolate;}.cls-3{fill:#6c8f26;}.cls-4{clip-path:url(#clip-path);}.cls-5{fill:#fbbca0;}.cls-6{fill:#e6e7e8;}.cls-11,.cls-6{mix-blend-mode:multiply;}.cls-7{fill:#dda78f;}.cls-8{fill:#fff;}.cls-9{fill:#174748;}.cls-10{fill:#ec524f;}.cls-11{fill:#d1d3d4;}.cls-12{fill:#023435;}.cls-13{fill:#e2e3e4;}.cls-14{fill:#150000;}.cls-15{fill:#1e0500;}</style><clipPath id="clip-path"><circle class="cls-1" cx="52.33" cy="52.33" r="52.33"/></clipPath></defs><title>avatar4</title><g class="cls-2"><g id="Layer_2" data-name="Layer 2"><g id="Capa_1" data-name="Capa 1"><circle class="cls-3" cx="52.33" cy="52.33" r="52.33"/><g class="cls-4"><rect class="cls-5" x="42.75" y="65.78" width="20.04" height="13.5"/><path class="cls-6" d="M47.61,75.55a27,27,0,0,0,9.59,2A31.79,31.79,0,0,0,62.79,77V65.78h-20v7A16.9,16.9,0,0,0,47.61,75.55Z"/><path class="cls-5" d="M73.7,40.78c.06-.49.88-1.29,1.23-1.56.8-.6,1.6,0,1.83.8A10.21,10.21,0,0,1,77,42.23a10.09,10.09,0,0,1-.92,5.11,6.81,6.81,0,0,1-2.31,2.6.81.81,0,0,1-1.24-.69Z"/><path class="cls-7" d="M73.53,41.84c0-.35.63-.92.88-1.12.57-.43,1.15,0,1.31.58a7.59,7.59,0,0,1,.2,1.58,7,7,0,0,1-.66,3.65,4.86,4.86,0,0,1-1.64,1.87.59.59,0,0,1-.9-.49Z"/><path class="cls-5" d="M31.34,40.78a3.71,3.71,0,0,0-1.24-1.56c-.79-.6-1.59,0-1.82.8A10.21,10.21,0,0,0,28,42.23a10,10,0,0,0,.92,5.11,6.87,6.87,0,0,0,2.3,2.6.82.82,0,0,0,1.25-.69Z"/><path class="cls-7" d="M31.51,41.84a2.7,2.7,0,0,0-.89-1.12c-.57-.43-1.14,0-1.31.58a7.58,7.58,0,0,0-.19,1.58,7,7,0,0,0,.66,3.65,4.86,4.86,0,0,0,1.64,1.87.59.59,0,0,0,.9-.49Z"/><path class="cls-5" d="M74.33,42.37a34.31,34.31,0,0,1-3.51,16.08,31.87,31.87,0,0,1-9.26,10.32c-2.94,2.19-6.09,4.75-9.81,4.44-3.88-.33-6.9-3.71-9.74-6.36a34.66,34.66,0,0,1-9.07-13.76A32.55,32.55,0,0,1,31.2,42.37c0-18.07,9.65-29.43,21.56-29.43S74.33,24.3,74.33,42.37Z"/><path class="cls-5" d="M87.77,85.39l-25-6.53h-20l-25,6.53A21.42,21.42,0,0,0,4.92,103.25h95.71A21.42,21.42,0,0,0,87.77,85.39Z"/><path class="cls-8" d="M87.77,85.39l-25-6.53h-20l-25,6.53A21.42,21.42,0,0,0,4.92,103.25h95.71A21.42,21.42,0,0,0,87.77,85.39Z"/><path class="cls-9" d="M87.77,85.39,69.29,80.56,52.77,103.25,36.44,80.51,17.78,85.39A21.42,21.42,0,0,0,4.92,103.25h95.71A21.42,21.42,0,0,0,87.77,85.39Z"/><polygon class="cls-10" points="50.58 91.88 45.98 103.25 59.06 103.25 54.57 91.88 50.58 91.88"/><polygon class="cls-10" points="52.47 79.08 46.61 86.94 50.69 91.91 52.68 91.88 54.67 91.85 58.58 86.75 52.47 79.08"/><path class="cls-11" d="M56.39,85.91c-.75,1.48-2.15,3.17-4,2.75A3.26,3.26,0,0,1,50,84.5c.44-1.83,1.62-3.36,2.28-5.09l-5.62,7.53,4.08,5,4-.06,3.91-5.1-1.65-2.08A12.54,12.54,0,0,1,56.39,85.91Z"/><polygon class="cls-12" points="52.77 103.25 36.44 80.51 23.38 83.93 40.07 95.68 35.78 97.57 43.5 103.25 52.77 103.25"/><polygon class="cls-12" points="52.77 103.29 69.11 80.54 82.17 83.96 65.48 95.71 69.77 97.6 62.05 103.29 52.77 103.29"/><polygon class="cls-13" points="32.92 79.34 42.72 74.74 52.71 78.91 62.69 74.74 73.16 79.34 58.36 89.25 52.71 81.15 46.61 89.25 32.92 79.34"/><path class="cls-14" d="M65.4,65.5s5.41-5.12,6.61-9.64c0,0-6.39,5.77-8.62,5.15Z"/><path class="cls-14" d="M41.65,67s-6.27-5.37-8-12.11c0,0,7.16,8.26,9.39,7.65Z"/><path class="cls-15" d="M56.59,58.17a11.1,11.1,0,0,1,5.48,1.27C65.18,60.91,66,64.9,66,64.9a27.41,27.41,0,0,1-4.76,4c-5.91,4.9-8.62,4.28-8.62,4.28a9.37,9.37,0,0,1-5.72-2.1L41.35,66.8A7.57,7.57,0,0,1,45,59.44c2.57-1.25,3-1.09,3-1.09s3.86-.45,4.8,1.09c0,0,1-1.27,3.6-1.27"/><path class="cls-5" d="M53.29,62.22a8,8,0,0,0-6,.09s5.36,5.68,11.45.07C58.78,62.38,55.52,60.86,53.29,62.22Z"/></g></g></g></g></svg>