<svg xmlns="http://www.w3.org/2000/svg" xmlns:xlink="http://www.w3.org/1999/xlink" viewBox="0 0 104.66 104.66"><defs><style>.cls-1{fill:#003a54;}.cls-2{isolation:isolate;}.cls-3{clip-path:url(#clip-path);}.cls-4{fill:#fbbca0;}.cls-5{fill:#e6e7e8;}.cls-10,.cls-5{mix-blend-mode:multiply;}.cls-6{fill:#dda78f;}.cls-7{fill:#fff;}.cls-8{fill:#002c41;}.cls-9{fill:#fbb040;}.cls-10{fill:#d1d3d4;}.cls-11{fill:#3c2415;}.cls-12{fill:#002136;}.cls-13{fill:#e2e3e4;}</style><clipPath id="clip-path"><circle class="cls-1" cx="52.33" cy="52.33" r="52.33" transform="translate(-10.66 91.19) rotate(-76.67)"/></clipPath></defs><title>avatar1</title><g class="cls-2"><g id="Layer_2" data-name="Layer 2"><g id="Capa_1" data-name="Capa 1"><circle class="cls-1" cx="52.33" cy="52.33" r="52.33" transform="translate(-10.66 91.19) rotate(-76.67)"/><g class="cls-3"><rect class="cls-4" x="42.31" y="67.14" width="20.04" height="13.5"/><path class="cls-5" d="M47.17,76.91a27.22,27.22,0,0,0,9.59,2,30.88,30.88,0,0,0,5.59-.55V67.14h-20v7A16.93,16.93,0,0,0,47.17,76.91Z"/><path class="cls-4" d="M74.45,42.13c.07-.49.93-1.29,1.31-1.56a1.25,1.25,0,0,1,1.93.8A11,11,0,0,1,78,43.59a9.48,9.48,0,0,1-1,5.1,6.84,6.84,0,0,1-2.43,2.61.87.87,0,0,1-1.31-.69Z"/><path class="cls-6" d="M74.27,43.2c0-.36.67-.93.94-1.12a.89.89,0,0,1,1.38.57,7.07,7.07,0,0,1,.21,1.59,6.8,6.8,0,0,1-.7,3.65,4.93,4.93,0,0,1-1.74,1.86.62.62,0,0,1-.94-.49Z"/><path class="cls-4" d="M29.71,42.13c-.07-.49-.93-1.29-1.31-1.56a1.25,1.25,0,0,0-1.93.8,9.72,9.72,0,0,0-.29,2.22,9.47,9.47,0,0,0,1,5.1,6.92,6.92,0,0,0,2.43,2.61.88.88,0,0,0,1.32-.69Z"/><path class="cls-6" d="M29.88,43.2c-.05-.36-.66-.93-.93-1.12a.89.89,0,0,0-1.38.57,6.54,6.54,0,0,0-.21,1.59,6.7,6.7,0,0,0,.69,3.65,5,5,0,0,0,1.74,1.86.62.62,0,0,0,.94-.49Z"/><path class="cls-4" d="M75.12,43.73A32.67,32.67,0,0,1,71.41,59.8a32.41,32.41,0,0,1-9.78,10.32c-3.1,2.2-6.44,4.75-10.37,4.44C47.17,74.24,44,70.85,41,68.21A34.49,34.49,0,0,1,31.4,54.45a30.69,30.69,0,0,1-1.85-10.72c0-18.07,10.2-29.43,22.79-29.43S75.12,25.66,75.12,43.73Z"/><path class="cls-4" d="M87.33,86.75l-25-6.53h-20l-25,6.53A21.44,21.44,0,0,0,4.47,104.61h95.72A21.44,21.44,0,0,0,87.33,86.75Z"/><path class="cls-7" d="M87.33,86.75l-25-6.53h-20l-25,6.53A21.44,21.44,0,0,0,4.47,104.61h95.72A21.44,21.44,0,0,0,87.33,86.75Z"/><path class="cls-8" d="M87.33,86.75,68.85,81.91l-16.52,22.7L36,81.87,17.34,86.75A21.44,21.44,0,0,0,4.47,104.61h95.72A21.44,21.44,0,0,0,87.33,86.75Z"/><polygon class="cls-9" points="50.14 93.24 45.54 104.61 58.61 104.61 54.13 93.24 50.14 93.24"/><polygon class="cls-9" points="52.03 80.44 46.17 88.3 50.24 93.27 52.24 93.24 54.23 93.21 58.14 88.1 52.03 80.44"/><path class="cls-10" d="M56,87.27c-.76,1.48-2.15,3.17-4,2.75a3.25,3.25,0,0,1-2.4-4.16c.44-1.83,1.62-3.36,2.28-5.1L46.17,88.3l4.08,5,4-.06,3.91-5.11L56.49,86C56.33,86.45,56.15,86.87,56,87.27Z"/><path class="cls-11" d="M75.44,41.5S71.73,58.88,59.25,63.88c0,0-1.55,3.86-6.72,3.86s-6.73-3.86-6.73-3.86c-12.48-5-16.19-22.38-16.19-22.38C28.52,61,42.52,69.41,42.52,69.41c7.63,6.24,10,5.17,10,5.17s2.38,1.07,10-5.17C62.53,69.41,76.39,61.52,75.44,41.5Z"/><path class="cls-11" d="M52.33,58.08s-5.15-1.58-6.53,5.8a8.76,8.76,0,0,1-3.77-2S45.49,53.2,52.33,58.08Z"/><path class="cls-11" d="M52.77,58.08s5.16-1.58,6.54,5.8a8.82,8.82,0,0,0,3.77-2S59.62,53.2,52.77,58.08Z"/><path class="cls-11" d="M29.61,41.5S33,21.16,43.38,23.16c0,0,9.43,5.86,17.29-.14,0,0,9.54-.32,14.77,18.48,0,0,1.31-20.06-13.09-27.2,0,0-13.32-6.15-24.72,3A25.76,25.76,0,0,0,29.61,41.5Z"/><polygon class="cls-12" points="52.33 104.61 36 81.87 22.94 85.28 39.63 97.03 35.34 98.92 43.06 104.61 52.33 104.61"/><polygon class="cls-12" points="52.33 104.64 68.67 81.9 81.73 85.31 65.04 97.06 69.33 98.96 61.61 104.64 52.33 104.64"/><polygon class="cls-13" points="32.48 80.69 42.28 76.1 52.27 80.27 62.25 76.1 72.72 80.69 57.92 90.6 52.27 82.5 46.17 90.6 32.48 80.69"/></g></g></g></g></svg>