<svg xmlns="http://www.w3.org/2000/svg" xmlns:xlink="http://www.w3.org/1999/xlink" viewBox="0 0 104.66 104.67"><defs><style>.cls-1{fill:none;}.cls-2{isolation:isolate;}.cls-3{fill:#7a4b35;}.cls-4{clip-path:url(#clip-path);}.cls-5{fill:#fbbca0;}.cls-6{fill:#e6e7e8;}.cls-11,.cls-6{mix-blend-mode:multiply;}.cls-7{fill:#dda78f;}.cls-8{fill:#fff;}.cls-9{fill:#002c41;}.cls-10{fill:#fbb040;}.cls-11{fill:#d1d3d4;}.cls-12{fill:#3c2415;}.cls-13{fill:#002136;}.cls-14{fill:#e2e3e4;}</style><clipPath id="clip-path"><circle class="cls-1" cx="52.33" cy="52.33" r="52.33" transform="translate(-3.56 100.84) rotate(-85.95)"/></clipPath></defs><title>avatar7</title><g class="cls-2"><g id="Layer_2" data-name="Layer 2"><g id="Capa_1" data-name="Capa 1"><circle class="cls-3" cx="52.33" cy="52.33" r="52.33" transform="translate(-3.56 100.84) rotate(-85.95)"/><g class="cls-4"><rect class="cls-5" x="42.06" y="66.78" width="20.04" height="13.5"/><path class="cls-6" d="M46.92,76.54a26.73,26.73,0,0,0,9.58,1.95A30.18,30.18,0,0,0,62.1,78V66.78h-20v7A16.41,16.41,0,0,0,46.92,76.54Z"/><path class="cls-5" d="M74.19,41.77c.07-.49.93-1.29,1.31-1.56a1.25,1.25,0,0,1,1.93.8,9.71,9.71,0,0,1,.29,2.21,9.51,9.51,0,0,1-1,5.11,7,7,0,0,1-2.43,2.61A.88.88,0,0,1,73,50.25Z"/><path class="cls-7" d="M74,42.83c0-.35.66-.92.93-1.11a.89.89,0,0,1,1.38.57,6.48,6.48,0,0,1,.21,1.59,6.79,6.79,0,0,1-.69,3.65,5,5,0,0,1-1.74,1.86.62.62,0,0,1-.94-.49S74,42.84,74,42.83Z"/><path class="cls-5" d="M29.45,41.77c-.07-.49-.93-1.29-1.31-1.56a1.25,1.25,0,0,0-1.93.8,11,11,0,0,0-.29,2.21,9.51,9.51,0,0,0,1,5.11,7,7,0,0,0,2.43,2.61.88.88,0,0,0,1.32-.69Z"/><path class="cls-7" d="M29.62,42.83c0-.35-.66-.92-.93-1.11a.89.89,0,0,0-1.38.57,7,7,0,0,0-.21,1.59,6.8,6.8,0,0,0,.7,3.65,4.93,4.93,0,0,0,1.74,1.86.62.62,0,0,0,.94-.49S29.63,42.84,29.62,42.83Z"/><path class="cls-5" d="M74.87,43.37a32.7,32.7,0,0,1-3.72,16.07,32.38,32.38,0,0,1-9.77,10.32C58.27,72,54.94,74.51,51,74.2c-4.1-.33-7.29-3.71-10.29-6.35a34.59,34.59,0,0,1-9.58-13.76A31,31,0,0,1,29.3,43.37c0-18.07,10.2-29.44,22.78-29.44S74.87,25.3,74.87,43.37Z"/><path class="cls-5" d="M87.07,86.39l-25-6.54h-20l-25,6.54A21.4,21.4,0,0,0,4.22,104.25H99.93A21.4,21.4,0,0,0,87.07,86.39Z"/><path class="cls-8" d="M87.07,86.39l-25-6.54h-20l-25,6.54A21.4,21.4,0,0,0,4.22,104.25H99.93A21.4,21.4,0,0,0,87.07,86.39Z"/><path class="cls-9" d="M87.07,86.39,68.59,81.55l-16.51,22.7L35.74,81.51,17.08,86.39A21.4,21.4,0,0,0,4.22,104.25H99.93A21.4,21.4,0,0,0,87.07,86.39Z"/><polygon class="cls-10" points="49.88 92.88 45.28 104.25 58.36 104.25 53.87 92.88 49.88 92.88"/><polygon class="cls-10" points="51.78 80.08 45.92 87.94 49.99 92.91 51.98 92.88 53.98 92.84 57.88 87.74 51.78 80.08"/><path class="cls-11" d="M55.69,86.91c-.75,1.48-2.14,3.16-4,2.75a3.27,3.27,0,0,1-2.4-4.16c.44-1.84,1.62-3.36,2.28-5.1l-5.61,7.54,4.07,5,4-.07,3.91-5.1-1.66-2.07C56.07,86.09,55.89,86.5,55.69,86.91Z"/><path class="cls-12" d="M29.35,41.14S32.7,20.79,43.13,22.79c0,0,9.43,5.87,17.29-.13,0,0,9.53-.33,14.77,18.48,0,0,1.3-20.06-13.09-27.21,0,0-13.32-6.14-24.72,3A25.75,25.75,0,0,0,29.35,41.14Z"/><polygon class="cls-13" points="52.08 104.25 35.74 81.51 22.68 84.92 39.37 96.67 35.09 98.56 42.8 104.25 52.08 104.25"/><polygon class="cls-13" points="52.08 104.28 68.41 81.54 81.47 84.95 64.78 96.7 69.07 98.59 61.35 104.28 52.08 104.28"/><polygon class="cls-14" points="32.23 80.33 42.02 75.74 52.01 79.91 61.99 75.74 72.46 80.33 57.66 90.24 52.01 82.14 45.92 90.24 32.23 80.33"/></g></g></g></g></svg>