<svg xmlns="http://www.w3.org/2000/svg" xmlns:xlink="http://www.w3.org/1999/xlink" viewBox="0 0 104.66 106.59"><defs><style>.cls-1{fill:none;}.cls-2{isolation:isolate;}.cls-3{fill:#678b42;}.cls-4{clip-path:url(#clip-path);}.cls-5{fill:#460209;}.cls-6{fill:#fbbca0;}.cls-7{fill:#e6e7e8;mix-blend-mode:multiply;}.cls-8{fill:#dda78f;}.cls-9{fill:#056f8c;}.cls-10{fill:#6b1d24;}.cls-11{fill:#3c2415;}</style><clipPath id="clip-path"><circle class="cls-1" cx="52.33" cy="52.33" r="52.33" transform="translate(-7.59 95.76) rotate(-80.93)"/></clipPath></defs><title>avatar8</title><g class="cls-2"><g id="Layer_2" data-name="Layer 2"><g id="Capa_1" data-name="Capa 1"><circle class="cls-3" cx="52.33" cy="52.33" r="52.33" transform="translate(-7.59 95.76) rotate(-80.93)"/><g class="cls-4"><path class="cls-5" d="M28.38,49.11c-.29.43-1.19,36.82,5.21,44.27H69.78s9.89-27.93,3.15-44.27H28.17"/><rect class="cls-6" x="42.89" y="69.12" width="20.04" height="13.5"/><path class="cls-7" d="M47.75,78.88a26.73,26.73,0,0,0,9.58,2,31,31,0,0,0,5.6-.54V69.12h-20v7A16.54,16.54,0,0,0,47.75,78.88Z"/><path class="cls-6" d="M74.6,43.71c.07-.5.92-1.31,1.28-1.58a1.22,1.22,0,0,1,1.9.81,10.48,10.48,0,0,1,.28,2.24,9.82,9.82,0,0,1-1,5.17A7,7,0,0,1,74.73,53a.86.86,0,0,1-1.3-.7Z"/><path class="cls-8" d="M74.43,44.78c0-.35.65-.93.92-1.13a.87.87,0,0,1,1.35.58,7.25,7.25,0,0,1,.21,1.61,7.16,7.16,0,0,1-.68,3.7,5.07,5.07,0,0,1-1.71,1.88.6.6,0,0,1-.92-.49Z"/><path class="cls-6" d="M30.71,43.71c-.07-.5-.91-1.31-1.28-1.58-.83-.61-1.65,0-1.9.81a10.48,10.48,0,0,0-.28,2.24,9.82,9.82,0,0,0,.95,5.17A6.9,6.9,0,0,0,30.59,53a.85.85,0,0,0,1.29-.7Z"/><path class="cls-8" d="M30.88,44.78c-.05-.35-.65-.93-.92-1.13a.87.87,0,0,0-1.35.58,7.25,7.25,0,0,0-.21,1.61,7.07,7.07,0,0,0,.69,3.7,5,5,0,0,0,1.7,1.88.61.61,0,0,0,.93-.49Z"/><path class="cls-6" d="M75.26,45.32A34,34,0,0,1,71.62,61.6,32.38,32.38,0,0,1,62,72c-3.05,2.23-6.32,4.81-10.17,4.5-4-.33-7.16-3.76-10.09-6.43a35,35,0,0,1-9.4-13.93,32.16,32.16,0,0,1-1.81-10.86c0-18.29,10-29.79,22.35-29.79S75.26,27,75.26,45.32Z"/><path class="cls-6" d="M83.4,88.72,61.64,82.19H44.18L22.42,88.72S12.33,93,11.21,106.59h83.4C93.49,93,83.4,88.72,83.4,88.72Z"/><path class="cls-9" d="M83.4,88.72l-12-3.61L52.91,103.56,34.4,85.13l-12,3.59S12.33,93,11.21,106.59h83.4C93.49,93,83.4,88.72,83.4,88.72Z"/><path class="cls-10" d="M37.74,22.79s10.77,17.07,37.45,20c0,0,5-19.45-13.72-28.91C61.47,13.86,47.11,7.94,37.74,22.79Z"/><path class="cls-11" d="M40.5,26.25s-7,4.49-10,17c0,0-3.23-23.65,13.5-26.6Z"/><path class="cls-10" d="M67.78,40.8s7.16,45.56-4.16,58.46c0,0,14.47-2.15,15.19-22.07,0,0,2.58-40.69-7.22-54.73Z"/><path class="cls-10" d="M37.16,99.26s-16.67-2-12.08-53.21c0,0,1.15-28.46,17.81-29.11l-1,10.79s-9.58,2.85-8.34,25.37C33.59,53.1,32.61,89.37,37.16,99.26Z"/></g></g></g></g></svg>