<svg xmlns="http://www.w3.org/2000/svg" xmlns:xlink="http://www.w3.org/1999/xlink" viewBox="0 0 104.67 104.66"><defs><style>.cls-1{fill:none;}.cls-2{isolation:isolate;}.cls-3{fill:#18add9;}.cls-4{clip-path:url(#clip-path);}.cls-5{fill:#231f20;}.cls-6{fill:#fbbca0;}.cls-7{fill:#e6e7e8;mix-blend-mode:multiply;}.cls-8{fill:#003a54;}.cls-9{fill:#e2e3e4;}.cls-10{fill:#cdcfd0;}</style><clipPath id="clip-path"><circle class="cls-1" cx="52.33" cy="52.33" r="52.33"/></clipPath></defs><title>avatar6</title><g class="cls-2"><g id="Layer_2" data-name="Layer 2"><g id="Capa_1" data-name="Capa 1"><circle class="cls-3" cx="52.33" cy="52.33" r="52.33"/><g class="cls-4"><path class="cls-5" d="M36.33,49.42c-.23.32-.77,27.52,4.32,33.05l28.63-.18S77,61.37,71.57,49.2l-35.41.22"/><rect class="cls-6" x="43.95" y="66.54" width="20.04" height="13.5" transform="translate(-0.46 0.34) rotate(-0.36)"/><path class="cls-7" d="M48.83,76.34a26.93,26.93,0,0,0,9.59,1.89A30.82,30.82,0,0,0,64,77.65l-.07-11.17-20,.12.05,7A16.77,16.77,0,0,0,48.83,76.34Z"/><path class="cls-6" d="M76.13,42.61a34.05,34.05,0,0,1-3.55,16.3,32.36,32.36,0,0,1-9.52,10.5c-3,2.24-6.28,4.85-10.14,4.56-4-.3-7.18-3.71-10.13-6.37A34.83,34.83,0,0,1,33.3,53.73a32,32,0,0,1-1.87-10.84C31.31,24.6,41.25,13,53.59,13S76,24.32,76.13,42.61Z"/><path class="cls-6" d="M84.54,86l-21.8-6.4L54,79.62l-8.73,0L23.56,86.34s-10.06,4.35-11.1,17.93l41.7-.26,41.69-.26C94.65,90.18,84.54,86,84.54,86Z"/><path class="cls-8" d="M84.54,86,72.48,82.42,54.14,101,35.51,82.67,23.56,86.34s-10.3,4.42-11.1,17.93l61-.38,22.85-.14C94.17,89.68,84.54,86,84.54,86Z"/><path class="cls-5" d="M32.68,32.05c5.28,5.11,22.09,3.9,20,3.81l2-10.32L56,36s3.16,1.22,10.32,0L68,28.93l1.27,6.57s4.9-1.33,6-3.73c0,0-1-18.09-19.71-19.82C55.61,12,36.78,12.35,32.68,32.05Z"/><path class="cls-5" d="M69.2,18s8.28,52.62-2.58,67c0,0,11.13-4.42,12.52-13.43C79.14,71.55,87.92,33.08,69.2,18Z"/><path class="cls-5" d="M41.57,17.8s-8.89,53.12,2.14,67.33c0,0-11.18-4.29-12.68-13.28C31,71.85,23,33.1,41.57,17.8Z"/><polygon class="cls-9" points="35.08 82.81 54.32 102.4 75.02 83.17 68.9 80.79 54.03 83.77 42.03 79.69 35.08 82.81"/><polygon class="cls-10" points="35.08 82.81 44.36 78.65 53.87 82.31 63.34 78.53 73.31 82.57 59.3 91.5 53.88 84.31 48.14 91.57 35.08 82.81"/></g></g></g></g></svg>