<svg xmlns="http://www.w3.org/2000/svg" xmlns:xlink="http://www.w3.org/1999/xlink" viewBox="0 0 104.66 105.48"><defs><style>.cls-1{fill:none;}.cls-2{isolation:isolate;}.cls-3{fill:#ec524f;}.cls-4{clip-path:url(#clip-path);}.cls-5{fill:#a36625;}.cls-6{fill:#fbbca0;}.cls-7{fill:#e6e7e8;mix-blend-mode:multiply;}.cls-8{fill:#dda78f;}.cls-9{fill:#00b9c5;}.cls-10{fill:#fbb040;}</style><clipPath id="clip-path"><circle class="cls-1" cx="52.33" cy="52.33" r="52.33"/></clipPath></defs><title>avatar5</title><g class="cls-2"><g id="Layer_2" data-name="Layer 2"><g id="Capa_1" data-name="Capa 1"><circle class="cls-3" cx="52.33" cy="52.33" r="52.33"/><g class="cls-4"><path class="cls-5" d="M27.8,48c-.29.43-1.19,36.82,5.21,44.27H69.2S79.09,64.34,72.36,48H27.59"/><rect class="cls-6" x="42.31" y="68.01" width="20.04" height="13.5"/><path class="cls-7" d="M47.17,77.78a27.17,27.17,0,0,0,9.59,2,30.88,30.88,0,0,0,5.59-.55V68h-20v7A16.93,16.93,0,0,0,47.17,77.78Z"/><path class="cls-6" d="M74,42.6c.07-.49.92-1.3,1.29-1.58.82-.61,1.65,0,1.89.81a10.56,10.56,0,0,1,.28,2.24,9.79,9.79,0,0,1-1,5.17,7,7,0,0,1-2.38,2.64.85.85,0,0,1-1.29-.7Z"/><path class="cls-8" d="M73.85,43.68c.05-.36.66-.93.92-1.13.59-.44,1.18,0,1.35.58a7.24,7.24,0,0,1,.21,1.6,7,7,0,0,1-.68,3.7,5,5,0,0,1-1.71,1.89.61.61,0,0,1-.92-.5Z"/><path class="cls-6" d="M30.13,42.6c-.07-.49-.91-1.3-1.28-1.58-.82-.61-1.65,0-1.89.81a10,10,0,0,0-.29,2.24,9.79,9.79,0,0,0,.95,5.17A7,7,0,0,0,30,51.88a.85.85,0,0,0,1.29-.7Z"/><path class="cls-8" d="M30.3,43.68c-.05-.36-.65-.93-.92-1.13-.59-.44-1.18,0-1.35.58a7.89,7.89,0,0,0-.21,1.6,7,7,0,0,0,.69,3.7,5,5,0,0,0,1.7,1.89.62.62,0,0,0,.93-.5Z"/><path class="cls-6" d="M74.68,44.22c0,5.65-1,11.38-3.64,16.27a32.4,32.4,0,0,1-9.59,10.45c-3.05,2.22-6.32,4.81-10.17,4.49-4-.33-7.15-3.75-10.09-6.43a35,35,0,0,1-9.4-13.93A32.1,32.1,0,0,1,30,44.22c0-18.29,10-29.8,22.35-29.8S74.68,25.93,74.68,44.22Z"/><path class="cls-6" d="M82.82,87.62,61.06,81.09H43.6L21.84,87.62s-10.08,4.29-11.2,17.86H94C92.91,91.91,82.82,87.62,82.82,87.62Z"/><path class="cls-9" d="M76.35,85.68,70.79,84,52.33,102.45,33.82,84l-4.35,1.31s1.63,6.58.51,20.15h45.2C74.06,91.91,76.35,85.68,76.35,85.68Z"/><path class="cls-10" d="M31.3,33.39s5.29,2.68,19.05,3.4l3-9.77.72,9.77a55.07,55.07,0,0,0,11.32-.86l1.29-5.45,1.58,5.16s3.86-.28,5-2.68c0,0-2.27-18-18.89-19.53C54.36,13.43,35.53,13.71,31.3,33.39Z"/><path class="cls-10" d="M40.17,16.22c-.51-.26,2.12-3.58,2.27-3.73,3-3,7.51-4,11.6-3.77C65,9.37,73.44,16,77.29,26.3a44.19,44.19,0,0,1,2.57,11.35,322,322,0,0,1,0,49.08,109.32,109.32,0,0,0-.14,17.49s-9,2.14-8.6-15.13L72,64.44l1.27-21.68s.59-10.13-3.42-12Z"/><path class="cls-10" d="M46.59,13.23S27.7,13.88,28.85,41L30,42.58s6-16.11,15.78-19.69Z"/><path class="cls-10" d="M36.81,83.13l-7.34,2.2c-4.06-12.43-1.85-36.09-1.85-36.09s1.7,3.09,3.25,2.76a42,42,0,0,0,2.59,6.91C33.45,65.53,33.69,75.46,36.81,83.13Z"/></g></g></g></g></svg>