<svg xmlns="http://www.w3.org/2000/svg" xmlns:xlink="http://www.w3.org/1999/xlink" viewBox="0 0 104.67 105.94"><defs><style>.cls-1{fill:none;}.cls-2{isolation:isolate;}.cls-3{fill:#fbb040;}.cls-4{clip-path:url(#clip-path);}.cls-5{fill:#fbbca0;}.cls-6{fill:#e6e7e8;}.cls-13,.cls-6{mix-blend-mode:multiply;}.cls-7{fill:#dda78f;}.cls-8{fill:#fff;}.cls-9{fill:#3c2415;}.cls-10{fill:#414042;}.cls-11{fill:#bd1e2d;}.cls-12{fill:#be1e2d;}.cls-13{fill:#d1d3d4;}.cls-14{fill:#363436;}.cls-15{fill:#e2e3e4;}</style><clipPath id="clip-path"><circle class="cls-1" cx="52.33" cy="52.33" r="52.33" transform="translate(-6.38 97.4) rotate(-82.51)"/></clipPath></defs><title>avatar3</title><g class="cls-2"><g id="Layer_2" data-name="Layer 2"><g id="Capa_1" data-name="Capa 1"><circle class="cls-3" cx="52.33" cy="52.33" r="52.33" transform="translate(-6.38 97.4) rotate(-82.51)"/><g class="cls-4"><rect class="cls-5" x="44.08" y="68.44" width="20.04" height="13.5"/><path class="cls-6" d="M49,78.21a26.89,26.89,0,0,0,9.58,1.94,30.18,30.18,0,0,0,5.6-.54V68.44h-20v7A16.85,16.85,0,0,0,49,78.21Z"/><path class="cls-5" d="M75.8,43c.07-.5.91-1.31,1.28-1.58.82-.61,1.65,0,1.89.81a10,10,0,0,1,.29,2.24,10,10,0,0,1-1,5.17,7,7,0,0,1-2.39,2.64.85.85,0,0,1-1.29-.7Z"/><path class="cls-7" d="M75.63,44.11c.05-.36.65-.94.91-1.13a.87.87,0,0,1,1.36.58,7.08,7.08,0,0,1,.2,1.6,7.06,7.06,0,0,1-.68,3.7,5,5,0,0,1-1.71,1.89.61.61,0,0,1-.92-.5Z"/><path class="cls-5" d="M31.9,43c-.07-.5-.91-1.31-1.28-1.58-.82-.61-1.65,0-1.89.81a10,10,0,0,0-.29,2.24,9.89,9.89,0,0,0,1,5.17,7,7,0,0,0,2.38,2.64.85.85,0,0,0,1.29-.7Z"/><path class="cls-7" d="M32.07,44.11c0-.36-.65-.94-.91-1.13-.59-.44-1.18,0-1.36.58a7.08,7.08,0,0,0-.2,1.6,7.06,7.06,0,0,0,.68,3.7A5,5,0,0,0,32,50.75a.61.61,0,0,0,.92-.5Z"/><path class="cls-5" d="M76.46,44.65a34,34,0,0,1-3.65,16.27,32.4,32.4,0,0,1-9.59,10.45c-3,2.22-6.31,4.81-10.17,4.49C49,75.53,45.9,72.1,43,69.43a35,35,0,0,1-9.4-13.93,32.1,32.1,0,0,1-1.81-10.85c0-18.29,10-29.8,22.36-29.8S76.46,26.36,76.46,44.65Z"/><path class="cls-5" d="M89.1,88.05l-25-6.53h-20l-25,6.53A21.42,21.42,0,0,0,6.25,105.91H102A21.42,21.42,0,0,0,89.1,88.05Z"/><path class="cls-8" d="M89.1,88.05l-25-6.53h-20l-25,6.53A21.42,21.42,0,0,0,6.25,105.91H102A21.42,21.42,0,0,0,89.1,88.05Z"/><path class="cls-9" d="M37.77,23.6S45.27,34.74,64.13,36c0,0-1.58-.71-3.44-5.57a63.28,63.28,0,0,0,13.94,8.71l1.79,3.63s0-1.85,1.7-1.52c0,0,1.43-14.54-4.57-21.68a9,9,0,0,1,4.72,1.71s-2.72-5.71-12-8.86c0,0,2.29-1.86,6.43-.57,0,0-5.48-2.57-14.67-2.14C58,9.74,40,9,37.77,23.6Z"/><path class="cls-9" d="M40.69,26.25l-8.9,16.48a14.83,14.83,0,0,0-1.17-1.28S30.17,18.81,42.7,14.52Z"/><path class="cls-10" d="M89.1,88.05,70.62,83.21l-16.51,22.7L37.77,83.17,19.11,88.05A21.42,21.42,0,0,0,6.25,105.91H102A21.42,21.42,0,0,0,89.1,88.05Z"/><polygon class="cls-11" points="51.91 94.54 47.31 105.91 60.39 105.91 55.9 94.54 51.91 94.54"/><polygon class="cls-12" points="53.8 81.74 47.95 89.6 52.02 94.57 54.01 94.54 56.01 94.5 59.91 89.4 53.8 81.74"/><path class="cls-13" d="M57.72,88.57c-.75,1.48-2.15,3.16-4,2.75a3.27,3.27,0,0,1-2.4-4.16c.44-1.84,1.62-3.36,2.28-5.1L48,89.6l4.07,5,4-.07,3.9-5.1-1.65-2.07C58.1,87.75,57.92,88.17,57.72,88.57Z"/><polygon class="cls-14" points="54.1 105.91 37.77 83.17 24.71 86.58 41.4 98.33 37.11 100.22 44.83 105.91 54.1 105.91"/><polygon class="cls-14" points="54.1 105.94 70.44 83.2 83.5 86.61 66.81 98.36 71.1 100.25 63.38 105.94 54.1 105.94"/><polygon class="cls-15" points="34.25 81.99 44.05 77.4 54.04 81.57 64.02 77.4 74.49 81.99 59.69 91.9 54.04 83.8 47.95 91.9 34.25 81.99"/></g></g></g></g></svg>